{
    "asset" : {
        "generator" : "Khronos glTF Blender I/O v3.4.50",
        "version" : "2.0"
    },
    "scene" : 0,
    "scenes" : [
        {
            "name" : "Scene",
            "nodes" : [
                0,
                1
            ]
        }
    ],
    "nodes" : [
        {
            "mesh" : 0,
            "name" : "Cube"
        },
        {
            "mesh" : 1,
            "name" : "LOD3spShape.001",
            "scale" : [
                0.009999999776482582,
                0.009999999776482582,
                0.009999999776482582
            ],
            "translation" : [
                0,
                0,
                0.06505036354064941
            ]
        }
    ],
    "materials" : [
        {
            "doubleSided" : true,
            "name" : "Material.001",
            "pbrMetallicRoughness" : {
                "baseColorTexture" : {
                    "index" : 0
                },
                "metallicFactor" : 0,
                "roughnessFactor" : 0.5
            }
        },
        {
            "name" : "blinn3-fx.001",
            "pbrMetallicRoughness" : {
                "baseColorTexture" : {
                    "index" : 1
                },
                "metallicFactor" : 0
            }
        }
    ],
    "meshes" : [
        {
            "name" : "Cube.001",
            "primitives" : [
                {
                    "attributes" : {
                        "POSITION" : 0,
                        "TEXCOORD_0" : 1,
                        "NORMAL" : 2,
                        "TANGENT" : 3
                    },
                    "indices" : 4,
                    "material" : 0
                }
            ]
        },
        {
            "name" : "LOD3spShape.001",
            "primitives" : [
                {
                    "attributes" : {
                        "POSITION" : 5,
                        "TEXCOORD_0" : 6,
                        "NORMAL" : 7,
                        "TANGENT" : 8
                    },
                    "indices" : 9,
                    "material" : 1
                }
            ]
        }
    ],
    "textures" : [
        {
            "sampler" : 0,
            "source" : 0
        },
        {
            "sampler" : 0,
            "source" : 1
        }
    ],
    "images" : [
        {
            "bufferView" : 5,
            "mimeType" : "image/jpeg",
            "name" : "linh-pham-linhphamarts-random-portrait-1"
        },
        {
            "bufferView" : 11,
            "mimeType" : "image/png",
            "name" : "Image_0"
        }
    ],
    "accessors" : [
        {
            "bufferView" : 0,
            "componentType" : 5126,
            "count" : 24,
            "max" : [
                0.5006635785102844,
                2.1008338928222656,
                0.36256808042526245
            ],
            "min" : [
                -0.13928216695785522,
                1.460888147354126,
                -0.2773776650428772
            ],
            "type" : "VEC3"
        },
        {
            "bufferView" : 1,
            "componentType" : 5126,
            "count" : 24,
            "type" : "VEC2"
        },
        {
            "bufferView" : 2,
            "componentType" : 5126,
            "count" : 24,
            "type" : "VEC3"
        },
        {
            "bufferView" : 3,
            "componentType" : 5126,
            "count" : 24,
            "type" : "VEC4"
        },
        {
            "bufferView" : 4,
            "componentType" : 5123,
            "count" : 36,
            "type" : "SCALAR"
        },
        {
            "bufferView" : 6,
            "componentType" : 5126,
            "count" : 2662,
            "max" : [
                96.17990112304688,
                163.97000122070312,
                53.92519760131836
            ],
            "min" : [
                -69.29850006103516,
                9.929369926452637,
                -61.32819747924805
            ],
            "type" : "VEC3"
        },
        {
            "bufferView" : 7,
            "componentType" : 5126,
            "count" : 2662,
            "type" : "VEC2"
        },
        {
            "bufferView" : 8,
            "componentType" : 5126,
            "count" : 2662,
            "type" : "VEC3"
        },
        {
            "bufferView" : 9,
            "componentType" : 5126,
            "count" : 2662,
            "type" : "VEC4"
        },
        {
            "bufferView" : 10,
            "componentType" : 5123,
            "count" : 12636,
            "type" : "SCALAR"
        }
    ],
    "bufferViews" : [
        {
            "buffer" : 0,
            "byteLength" : 288,
            "byteOffset" : 0,
            "target" : 34962
        },
        {
            "buffer" : 0,
            "byteLength" : 192,
            "byteOffset" : 288,
            "target" : 34962
        },
        {
            "buffer" : 0,
            "byteLength" : 288,
            "byteOffset" : 480,
            "target" : 34962
        },
        {
            "buffer" : 0,
            "byteLength" : 384,
            "byteOffset" : 768,
            "target" : 34962
        },
        {
            "buffer" : 0,
            "byteLength" : 72,
            "byteOffset" : 1152,
            "target" : 34963
        },
        {
            "buffer" : 0,
            "byteLength" : 1376980,
            "byteOffset" : 1224
        },
        {
            "buffer" : 0,
            "byteLength" : 31944,
            "byteOffset" : 1378204,
            "target" : 34962
        },
        {
            "buffer" : 0,
            "byteLength" : 21296,
            "byteOffset" : 1410148,
            "target" : 34962
        },
        {
            "buffer" : 0,
            "byteLength" : 31944,
            "byteOffset" : 1431444,
            "target" : 34962
        },
        {
            "buffer" : 0,
            "byteLength" : 42592,
            "byteOffset" : 1463388,
            "target" : 34962
        },
        {
            "buffer" : 0,
            "byteLength" : 25272,
            "byteOffset" : 1505980,
            "target" : 34963
        },
        {
            "buffer" : 0,
            "byteLength" : 16302,
            "byteOffset" : 1531252
        }
    ],
    "samplers" : [
        {
            "magFilter" : 9729,
            "minFilter" : 9987
        }
    ],
    "buffers" : [
        {
            "byteLength" : 1547556,
            "uri" : "data:application/octet-stream;base64,"
        }
    ]
}
