{
    "asset" : {
        "generator" : "Khronos glTF Blender I/O v3.4.50",
        "version" : "2.0"
    },
    "scene" : 0,
    "scenes" : [
        {
            "name" : "Scene",
            "nodes" : [
                0
            ]
        }
    ],
    "nodes" : [
        {
            "mesh" : 0,
            "name" : "LOD3spShape.001"
        }
    ],
    "materials" : [
        {
            "name" : "blinn3-fx.001",
            "pbrMetallicRoughness" : {
                "baseColorTexture" : {
                    "index" : 0
                },
                "metallicFactor" : 0
            }
        },
        {
            "doubleSided" : true,
            "name" : "Material.001",
            "pbrMetallicRoughness" : {
                "baseColorTexture" : {
                    "index" : 1
                },
                "metallicFactor" : 0,
                "roughnessFactor" : 0.5
            }
        },
        {
            "doubleSided" : true,
            "name" : "human:initialShadingGroup1",
            "pbrMetallicRoughness" : {
                "baseColorFactor" : [
                    0.5,
                    0.5,
                    0.5,
                    1
                ],
                "metallicFactor" : 0,
                "roughnessFactor" : 0.5527864098548889
            }
        }
    ],
    "meshes" : [
        {
            "name" : "LOD3spShape.001",
            "primitives" : [
                {
                    "attributes" : {
                        "POSITION" : 0,
                        "TEXCOORD_0" : 1,
                        "TEXCOORD_1" : 2,
                        "NORMAL" : 3,
                        "TANGENT" : 4
                    },
                    "indices" : 5,
                    "material" : 0
                },
                {
                    "attributes" : {
                        "POSITION" : 6,
                        "TEXCOORD_0" : 7,
                        "TEXCOORD_1" : 8,
                        "NORMAL" : 9,
                        "TANGENT" : 10
                    },
                    "indices" : 11,
                    "material" : 1
                },
                {
                    "attributes" : {
                        "POSITION" : 12,
                        "TEXCOORD_0" : 13,
                        "TEXCOORD_1" : 14,
                        "NORMAL" : 15,
                        "TANGENT" : 16
                    },
                    "indices" : 17,
                    "material" : 2
                }
            ]
        }
    ],
    "textures" : [
        {
            "sampler" : 0,
            "source" : 0
        },
        {
            "sampler" : 0,
            "source" : 1
        }
    ],
    "images" : [
        {
            "bufferView" : 6,
            "mimeType" : "image/png",
            "name" : "Image_0"
        },
        {
            "bufferView" : 13,
            "mimeType" : "image/jpeg",
            "name" : "linh-pham-linhphamarts-random-portrait-1"
        }
    ],
    "accessors" : [
        {
            "bufferView" : 0,
            "componentType" : 5126,
            "count" : 2662,
            "max" : [
                0.9617989659309387,
                1.639699935913086,
                0.6043023467063904
            ],
            "min" : [
                -0.6929849982261658,
                0.09929369390010834,
                -0.5482316017150879
            ],
            "type" : "VEC3"
        },
        {
            "bufferView" : 1,
            "componentType" : 5126,
            "count" : 2662,
            "type" : "VEC2"
        },
        {
            "bufferView" : 2,
            "componentType" : 5126,
            "count" : 2662,
            "type" : "VEC2"
        },
        {
            "bufferView" : 3,
            "componentType" : 5126,
            "count" : 2662,
            "type" : "VEC3"
        },
        {
            "bufferView" : 4,
            "componentType" : 5126,
            "count" : 2662,
            "type" : "VEC4"
        },
        {
            "bufferView" : 5,
            "componentType" : 5123,
            "count" : 12636,
            "type" : "SCALAR"
        },
        {
            "bufferView" : 7,
            "componentType" : 5126,
            "count" : 24,
            "max" : [
                0.5006635785102844,
                2.1008338928222656,
                0.36256808042526245
            ],
            "min" : [
                -0.13928216695785522,
                1.460888147354126,
                -0.2773776650428772
            ],
            "type" : "VEC3"
        },
        {
            "bufferView" : 8,
            "componentType" : 5126,
            "count" : 24,
            "type" : "VEC2"
        },
        {
            "bufferView" : 9,
            "componentType" : 5126,
            "count" : 24,
            "type" : "VEC2"
        },
        {
            "bufferView" : 10,
            "componentType" : 5126,
            "count" : 24,
            "type" : "VEC3"
        },
        {
            "bufferView" : 11,
            "componentType" : 5126,
            "count" : 24,
            "type" : "VEC4"
        },
        {
            "bufferView" : 12,
            "componentType" : 5123,
            "count" : 36,
            "type" : "SCALAR"
        },
        {
            "bufferView" : 14,
            "componentType" : 5126,
            "count" : 14512,
            "max" : [
                2.232003688812256,
                7.412613868713379,
                1.9332972764968872
            ],
            "min" : [
                0.35979175567626953,
                -0.08444404602050781,
                -2.5259273052215576
            ],
            "type" : "VEC3"
        },
        {
            "bufferView" : 15,
            "componentType" : 5126,
            "count" : 14512,
            "type" : "VEC2"
        },
        {
            "bufferView" : 16,
            "componentType" : 5126,
            "count" : 14512,
            "type" : "VEC2"
        },
        {
            "bufferView" : 17,
            "componentType" : 5126,
            "count" : 14512,
            "type" : "VEC3"
        },
        {
            "bufferView" : 18,
            "componentType" : 5126,
            "count" : 14512,
            "type" : "VEC4"
        },
        {
            "bufferView" : 19,
            "componentType" : 5123,
            "count" : 80268,
            "type" : "SCALAR"
        }
    ],
    "bufferViews" : [
        {
            "buffer" : 0,
            "byteLength" : 31944,
            "byteOffset" : 0,
            "target" : 34962
        },
        {
            "buffer" : 0,
            "byteLength" : 21296,
            "byteOffset" : 31944,
            "target" : 34962
        },
        {
            "buffer" : 0,
            "byteLength" : 21296,
            "byteOffset" : 53240,
            "target" : 34962
        },
        {
            "buffer" : 0,
            "byteLength" : 31944,
            "byteOffset" : 74536,
            "target" : 34962
        },
        {
            "buffer" : 0,
            "byteLength" : 42592,
            "byteOffset" : 106480,
            "target" : 34962
        },
        {
            "buffer" : 0,
            "byteLength" : 25272,
            "byteOffset" : 149072,
            "target" : 34963
        },
        {
            "buffer" : 0,
            "byteLength" : 16302,
            "byteOffset" : 174344
        },
        {
            "buffer" : 0,
            "byteLength" : 288,
            "byteOffset" : 190648,
            "target" : 34962
        },
        {
            "buffer" : 0,
            "byteLength" : 192,
            "byteOffset" : 190936,
            "target" : 34962
        },
        {
            "buffer" : 0,
            "byteLength" : 192,
            "byteOffset" : 191128,
            "target" : 34962
        },
        {
            "buffer" : 0,
            "byteLength" : 288,
            "byteOffset" : 191320,
            "target" : 34962
        },
        {
            "buffer" : 0,
            "byteLength" : 384,
            "byteOffset" : 191608,
            "target" : 34962
        },
        {
            "buffer" : 0,
            "byteLength" : 72,
            "byteOffset" : 191992,
            "target" : 34963
        },
        {
            "buffer" : 0,
            "byteLength" : 1376980,
            "byteOffset" : 192064
        },
        {
            "buffer" : 0,
            "byteLength" : 174144,
            "byteOffset" : 1569044,
            "target" : 34962
        },
        {
            "buffer" : 0,
            "byteLength" : 116096,
            "byteOffset" : 1743188,
            "target" : 34962
        },
        {
            "buffer" : 0,
            "byteLength" : 116096,
            "byteOffset" : 1859284,
            "target" : 34962
        },
        {
            "buffer" : 0,
            "byteLength" : 174144,
            "byteOffset" : 1975380,
            "target" : 34962
        },
        {
            "buffer" : 0,
            "byteLength" : 232192,
            "byteOffset" : 2149524,
            "target" : 34962
        },
        {
            "buffer" : 0,
            "byteLength" : 160536,
            "byteOffset" : 2381716,
            "target" : 34963
        }
    ],
    "samplers" : [
        {
            "magFilter" : 9729,
            "minFilter" : 9987
        }
    ],
    "buffers" : [
        {
            "byteLength" : 2542252,
            "uri" : "data:application/octet-stream;base64,"
        }
    ]
}
